<svg xmlns="http://www.w3.org/2000/svg" viewBox="0 0 512 512">
  <defs>
    <linearGradient id="bg" x1="0%" y1="0%" x2="100%" y2="100%">
      <stop offset="0%" style="stop-color:#f59e0b"/>
      <stop offset="100%" style="stop-color:#d97706"/>
    </linearGradient>
  </defs>
  <rect width="512" height="512" rx="108" fill="url(#bg)"/>
  <g transform="translate(128, 128) scale(1)">
    <path fill="white" d="M128 0C93.1 0 64.8 26.4 61.2 60.5C24.3 67.3 0 99.8 0 137.5c0 44.3 35.9 80.3 80 80.3h176c44.1 0 80-36 80-80.3 0-37.7-24.3-70.2-61.2-77L274.8 60.5C271.2 26.4 242.9 0 208 0H128zm0 32h80c26.5 0 48 21.5 48 48v16c0 8.8 7.2 16 16 16 26.5 0 48 21.5 48 48s-21.5 48-48 48H80c-26.5 0-48-21.5-48-48s21.5-48 48-48c8.8 0 16-7.2 16-16V80c0-26.5 21.5-48 48-48z"/>
    <rect x="96" y="238" width="144" height="16" rx="8" fill="white" opacity="0.9"/>
    <rect x="64" y="254" width="208" height="2" fill="white" opacity="0.5"/>
  </g>
  <text x="256" y="420" font-family="Arial, sans-serif" font-size="72" font-weight="bold" fill="white" text-anchor="middle">BETÂNIA</text>
</svg>
